<svg width="21" height="22" viewBox="0 0 21 22" fill="none" xmlns="http://www.w3.org/2000/svg">
<path d="M20.4833 10.6082C20.4505 11.3321 20.3317 12.0522 20.1269 12.7687C19.922 13.4851 19.6107 14.1381 19.1928 14.7276C18.7831 15.3172 18.2546 15.7873 17.6074 16.1381C16.9601 16.4888 16.1817 16.6642 15.2722 16.6642C14.7233 16.6642 14.2357 16.5784 13.8097 16.4067C13.3836 16.2276 13.0272 15.9739 12.7404 15.6455C12.4618 15.3172 12.2611 14.9216 12.1382 14.459C12.0153 13.9888 11.9825 13.4664 12.0399 12.8918L12.6667 6.54478H14.8175L14.203 12.8918C14.1538 13.347 14.162 13.7201 14.2275 14.0112C14.3013 14.3022 14.4119 14.5261 14.5594 14.6828C14.7069 14.8396 14.8748 14.9478 15.0633 15.0075C15.2517 15.0672 15.4402 15.097 15.6286 15.097C16.0711 15.097 16.4685 14.9851 16.8208 14.7612C17.1731 14.5299 17.4722 14.2127 17.718 13.8097C17.972 13.3993 18.1686 12.9254 18.3079 12.3881C18.4554 11.8507 18.5414 11.2687 18.566 10.6418C18.6234 9.59701 18.5701 8.63433 18.4062 7.75373C18.2424 6.86567 17.9638 6.07463 17.5705 5.3806C17.1854 4.68657 16.6815 4.10075 16.0588 3.62313C15.4443 3.13806 14.7069 2.76866 13.8465 2.51493C12.9862 2.26119 12.003 2.13433 10.8969 2.13433C9.8809 2.13433 8.94275 2.27612 8.08243 2.5597C7.22212 2.84328 6.45193 3.25373 5.77187 3.79104C5.09181 4.3209 4.50598 4.95895 4.01437 5.70522C3.53095 6.44403 3.14995 7.27612 2.87138 8.20149C2.60099 9.1194 2.44122 10.1045 2.39206 11.1567C2.3347 12.2612 2.39615 13.2687 2.57641 14.1791C2.76486 15.0896 3.06802 15.8955 3.48589 16.597C3.90375 17.2985 4.42814 17.8881 5.05904 18.3657C5.69813 18.8507 6.43554 19.2164 7.27128 19.4627C8.11521 19.709 9.04926 19.8321 10.0734 19.8321C10.7945 19.8321 11.5237 19.7575 12.2611 19.6082C13.0067 19.459 13.6335 19.2612 14.1415 19.0149L14.6085 20.5037C14.035 20.8396 13.3181 21.0896 12.4578 21.2537C11.5974 21.4179 10.7863 21.5 10.0243 21.5C8.7543 21.5 7.59082 21.3507 6.53386 21.0522C5.4851 20.7537 4.55514 20.3134 3.74398 19.7313C2.94102 19.1567 2.27325 18.4515 1.74068 17.6157C1.2081 16.7799 0.814811 15.8209 0.560813 14.7388C0.306815 13.6567 0.208494 12.4627 0.265848 11.1567C0.323202 9.93284 0.528039 8.78358 0.880359 7.70895C1.23268 6.62687 1.71609 5.64552 2.33061 4.76493C2.95331 3.88433 3.69072 3.12687 4.54285 2.49254C5.40316 1.85075 6.36999 1.35821 7.44334 1.01493C8.51669 0.671642 9.68426 0.5 10.9461 0.5C12.2242 0.5 13.3795 0.652985 14.4119 0.958955C15.4443 1.26493 16.3497 1.70896 17.128 2.29104C17.9146 2.87313 18.566 3.57836 19.0822 4.40672C19.5984 5.23507 19.9753 6.17164 20.2129 7.21642C20.4505 8.25373 20.5406 9.38433 20.4833 10.6082ZM7.98411 11.6716C7.92676 12.1791 7.92266 12.6306 7.97182 13.0261C8.02917 13.4216 8.13159 13.7537 8.27908 14.0224C8.43475 14.291 8.63549 14.4963 8.8813 14.6381C9.1271 14.7799 9.41387 14.8507 9.74161 14.8507C9.94645 14.8507 10.1636 14.806 10.393 14.7164C10.6306 14.6194 10.8641 14.4664 11.0935 14.2575C11.323 14.0485 11.5401 13.7724 11.7449 13.4291C11.9498 13.0784 12.1218 12.6455 12.2611 12.1306L13.1952 13.1045C13.0067 13.6866 12.7691 14.2015 12.4823 14.6493C12.1956 15.0896 11.8719 15.459 11.5114 15.7575C11.1509 16.0485 10.7617 16.2724 10.3438 16.4291C9.92597 16.5784 9.49171 16.653 9.04107 16.653C8.44294 16.653 7.91037 16.5336 7.44334 16.2948C6.9845 16.056 6.6076 15.7201 6.31264 15.2873C6.01767 14.847 5.80874 14.3246 5.68584 13.7201C5.56294 13.1082 5.53836 12.4254 5.6121 11.6716C5.69403 10.903 5.84971 10.1903 6.07913 9.53358C6.31674 8.87687 6.6076 8.29104 6.95173 7.77612C7.30405 7.26119 7.70144 6.82463 8.14388 6.46642C8.58633 6.10075 9.06155 5.82463 9.56955 5.63806C10.0857 5.44403 10.6142 5.34701 11.155 5.34701C12.0809 5.34701 12.806 5.46642 13.3304 5.70522C13.8547 5.94403 14.3504 6.22388 14.8175 6.54478L13.6622 7.88806C13.4246 7.68657 13.1132 7.49627 12.7281 7.31716C12.3512 7.13806 11.9006 7.04851 11.3762 7.04851C10.9092 7.04851 10.4831 7.14552 10.098 7.33955C9.72113 7.53358 9.38929 7.82836 9.10252 8.22388C8.81575 8.61194 8.57404 9.09328 8.3774 9.66791C8.18895 10.2425 8.05785 10.9104 7.98411 11.6716Z" fill="#1C1C1B"/>
</svg>
