<svg width="14" height="22" viewBox="0 0 14 22" fill="none" xmlns="http://www.w3.org/2000/svg">
<path d="M5.50039 18.4185H8.28221C8.40585 18.4185 8.51403 18.3721 8.60676 18.2794C8.69948 18.1867 8.74585 18.0785 8.74585 17.9548C8.74585 17.8312 8.69948 17.723 8.60676 17.6303C8.51403 17.5376 8.40585 17.4912 8.28221 17.4912H5.50039C5.37675 17.4912 5.26857 17.5376 5.17585 17.6303C5.08312 17.723 5.03675 17.8312 5.03675 17.9548C5.03675 18.0785 5.08312 18.1867 5.17585 18.2794C5.26857 18.3721 5.37675 18.4185 5.50039 18.4185ZM2.25494 21.2003C1.74494 21.2003 1.3085 21.0189 0.945627 20.656C0.582136 20.2925 0.400391 19.8557 0.400391 19.3457V2.65484C0.400391 2.14484 0.582136 1.70809 0.945627 1.3446C1.3085 0.981729 1.74494 0.800293 2.25494 0.800293H11.5277C12.0377 0.800293 12.4744 0.981729 12.8379 1.3446C13.2008 1.70809 13.3822 2.14484 13.3822 2.65484V19.3457C13.3822 19.8557 13.2008 20.2925 12.8379 20.656C12.4744 21.0189 12.0377 21.2003 11.5277 21.2003H2.25494ZM2.25494 14.7094H11.5277V5.43666H2.25494V14.7094Z" fill="#1C1C1B"/>
</svg>
