<svg width="20" height="20" viewBox="0 0 20 20" fill="none" xmlns="http://www.w3.org/2000/svg">
<path fill-rule="evenodd" clip-rule="evenodd" d="M17.0732 2.92621C16.1491 2.00434 15.0732 1.28112 13.8745 0.776659C12.6334 0.256571 11.3142 -0.00682221 9.95487 -0.000125446C8.60219 0.00657131 7.29192 0.27443 6.05978 0.801215C4.87005 1.30791 3.80308 2.03336 2.89014 2.95523C1.97719 3.87487 1.2629 4.94854 0.765136 6.14273C0.258439 7.36371 -0.000488777 8.66059 -0.000488718 9.99764L-0.000488716 10.0445C0.00620805 11.5936 0.376743 13.1316 1.07094 14.5066L1.07094 17.9017C1.07094 18.4686 1.53076 18.9284 2.09772 18.9284L5.49058 18.9284C6.86558 19.6226 8.40353 19.9932 9.95264 19.9999C11.3053 20.0066 12.62 19.7476 13.8567 19.2342C15.0509 18.7387 16.1223 18.0222 17.0442 17.1092C17.966 16.1963 18.6892 15.1293 19.1982 13.9396C19.725 12.7075 19.9928 11.3972 19.9995 10.0445L19.9995 9.99987C19.9995 8.65612 19.7384 7.35255 19.2227 6.12488C18.7205 4.92398 17.995 3.84809 17.0732 2.92621ZM1.69594 9.99987C1.69594 7.79005 2.54862 5.71416 4.09772 4.14943C5.65576 2.578 7.73835 1.70523 9.96156 1.69184C11.091 1.68737 12.1848 1.90389 13.216 2.33693C14.2116 2.75434 15.1067 3.35702 15.8723 4.12264C16.6401 4.8905 17.2406 5.78336 17.658 6.77889C18.0866 7.79898 18.3031 8.88157 18.3031 9.99764L18.3031 10.0356C18.2942 12.261 17.4236 14.3436 15.85 15.9017C14.2763 17.4619 12.187 18.3124 9.96156 18.3034C8.61558 18.2967 7.27853 17.9619 6.09773 17.3325L5.91023 17.232L2.76737 17.232L2.76737 14.0892L2.66692 13.9017C2.03746 12.7209 1.70264 11.3838 1.69594 10.0378L1.69594 9.99987ZM8.83677 7.18331C8.75642 6.95787 8.16267 5.74581 8.03767 5.50251C8.01839 5.46286 8.00059 5.42529 7.98383 5.38991C7.89775 5.20816 7.83904 5.08421 7.74749 5.03376C7.64481 4.97349 7.15151 4.97349 6.57561 5.17662C5.99749 5.37974 5.47517 6.35966 5.40374 6.8351C5.28767 7.61635 5.3457 8.22796 6.01981 9.79046C7.01538 12.0913 9.236 13.6451 9.67046 13.9491C9.70259 13.9716 9.72495 13.9872 9.73633 13.9958C9.74041 13.9988 9.74511 14.0022 9.75042 14.0061C9.9595 14.1594 11.1033 14.998 12.2832 14.998C13.4128 14.998 14.0073 14.4435 14.2828 14.1864C14.3024 14.1682 14.3203 14.1514 14.3368 14.1364C14.5801 13.911 14.6426 13.6454 14.6426 13.4802C14.6426 13.315 14.6426 13.1521 14.6336 13.0092C14.6326 12.991 14.6326 12.972 14.6326 12.9522C14.6329 12.8098 14.6333 12.6301 14.2118 12.4556C14.0467 12.3869 13.8013 12.2862 13.5432 12.1802C13.0301 11.9696 12.4668 11.7383 12.3836 11.6967C12.2586 11.6342 12.118 11.594 11.9528 11.6744C11.5353 11.8837 11.3095 12.0995 11.1492 12.2527C10.9488 12.4443 10.851 12.5378 10.6091 12.3976C8.97293 11.4445 8.40597 10.4958 7.68276 9.04939C7.55999 8.80608 7.58008 8.66099 7.74526 8.51814C7.91267 8.37081 8.46401 7.90206 8.71177 7.73689C8.96177 7.57394 8.9216 7.40876 8.83677 7.18331Z" fill="#1C1C1B"/>
</svg>
