<svg width="39" height="36" viewBox="0 0 39 36" fill="none" xmlns="http://www.w3.org/2000/svg">
<path d="M39 2.66861e-06V9.29033C39 12.7189 38.5206 16.0369 37.5618 19.2442C36.603 22.5069 35.2495 25.576 33.5011 28.4516C31.6963 31.3272 29.5813 33.8433 27.1562 36L21.1497 31.6866C23.744 28.2581 25.718 24.8018 27.0716 21.318C28.3688 17.8341 29.0174 13.9078 29.0174 9.53917V1.81291e-06L39 2.66861e-06ZM17.8503 8.55696e-07V9.29032C17.8503 12.7189 17.3709 16.0369 16.4121 19.2442C15.4534 22.5069 14.0998 25.576 12.3514 28.4516C10.5466 31.3272 8.43167 33.8433 6.00651 36L0 31.6866C2.59436 28.2581 4.56833 24.8018 5.92191 21.318C7.21909 17.8341 7.86768 13.9078 7.86768 9.53917L7.86768 0L17.8503 8.55696e-07Z" fill="#71BEAB"/>
</svg>
