<svg width="210" height="82" viewBox="0 0 210 82" fill="none" xmlns="http://www.w3.org/2000/svg">
<path d="M99.176 30.9491H94.2141V39.4967H91.4141V18.3669H98.4071C100.786 18.3669 102.616 18.9089 103.898 19.9923C105.18 21.0758 105.82 22.6531 105.82 24.7232C105.82 26.0391 105.465 27.1855 104.754 28.1626C104.043 29.14 103.054 29.8703 101.787 30.354L106.749 39.3227V39.4967H103.76L99.176 30.9491ZM94.2141 28.6706H98.4941C99.8772 28.6706 100.977 28.3121 101.795 27.5948C102.612 26.8775 103.02 25.9182 103.02 24.7161C103.02 23.4076 102.631 22.4046 101.853 21.7067C101.074 21.0088 99.9497 20.655 98.4795 20.6453H94.2141V28.6706Z" fill="#1C1C1B"/>
<path d="M121.659 29.7301H112.504V37.2182H123.139V39.4967H109.719V18.3669H122.993V20.6453H112.504V27.4516H121.659V29.7301Z" fill="#1C1C1B"/>
<path d="M133.393 29.9413H124.809V27.2844H133.393V29.9413Z" fill="#1C1C1B"/>
<path d="M136.547 39.4967V18.3669H143.453C145.745 18.3669 147.468 18.8412 148.625 19.7893C149.78 20.7373 150.359 22.14 150.359 23.9977C150.359 24.9845 150.078 25.8576 149.517 26.6171C148.956 27.3768 148.191 27.9645 147.224 28.3805C148.366 28.6996 149.268 29.307 149.93 30.2017C150.592 31.0967 150.924 32.1632 150.924 33.4016C150.924 35.298 150.31 36.7879 149.082 37.8713C147.853 38.955 146.117 39.4967 143.873 39.4967H136.547ZM139.332 27.3791H143.539C144.758 27.3791 145.732 27.0738 146.463 26.463C147.193 25.8521 147.558 25.0231 147.558 23.9759C147.558 22.8123 147.22 21.9664 146.543 21.4381C145.865 20.9097 144.835 20.6453 143.453 20.6453H139.332V27.3791ZM139.332 29.614V37.2182H143.931C145.227 37.2182 146.25 36.8822 147 36.2096C147.749 35.5373 148.124 34.6111 148.124 33.4307C148.124 30.8863 146.741 29.614 143.975 29.614H139.332Z" fill="#1C1C1B"/>
<path d="M171.297 29.6138C171.297 31.6842 170.949 33.4909 170.253 35.0341C169.556 36.5772 168.57 37.755 167.293 38.5677C166.017 39.3804 164.527 39.7867 162.825 39.7867C161.161 39.7867 159.686 39.3781 158.4 38.5606C157.113 37.7431 156.115 36.5772 155.404 35.063C154.693 33.5491 154.328 31.7954 154.309 29.8024V28.2785C154.309 26.2468 154.661 24.4523 155.367 22.8946C156.074 21.337 157.072 20.1445 158.363 19.3171C159.655 18.4901 161.132 18.0764 162.796 18.0764C164.488 18.0764 165.98 18.4853 167.271 19.3028C168.563 20.1204 169.556 21.3055 170.253 22.8582C170.949 24.4112 171.297 26.2178 171.297 28.2785V29.6138ZM168.526 28.2495C168.526 25.7439 168.023 23.8211 167.017 22.481C166.012 21.141 164.604 20.471 162.796 20.471C161.035 20.471 159.65 21.141 158.639 22.481C157.629 23.8211 157.109 25.6809 157.079 28.0609V29.6138C157.079 32.0423 157.59 33.9507 158.61 35.3388C159.63 36.7272 161.035 37.4213 162.825 37.4213C164.624 37.4213 166.017 36.7659 167.003 35.4549C167.99 34.1439 168.497 32.2647 168.526 29.8168V28.2495Z" fill="#1C1C1B"/>
<path d="M183.219 30.9491H178.257V39.4967H175.457V18.3669H182.45C184.829 18.3669 186.659 18.9089 187.941 19.9923C189.223 21.0758 189.864 22.6531 189.864 24.7232C189.864 26.0391 189.508 27.1855 188.797 28.1626C188.086 29.14 187.097 29.8703 185.831 30.354L190.792 39.3227V39.4967H187.804L183.219 30.9491ZM178.257 28.6706H182.537C183.92 28.6706 185.02 28.3121 185.837 27.5948C186.655 26.8775 187.064 25.9182 187.064 24.7161C187.064 23.4076 186.674 22.4046 185.895 21.7067C185.117 21.0088 183.992 20.655 182.523 20.6453H178.257V28.6706Z" fill="#1C1C1B"/>
<path d="M210 39.4967H207.2L196.566 23.2139V39.4967H193.766V18.3669H196.566L207.229 34.7221V18.3669H210V39.4967Z" fill="#1C1C1B"/>
<path d="M101.336 57.7942H93.0282L91.1405 62.8642H90.4531L96.8036 45.8936H97.5725L103.923 62.8642H103.235L101.336 57.7942ZM93.2613 57.1647H101.103L97.1881 46.651L93.2613 57.1647Z" fill="#1C1C1B" stroke="#1C1C1B" stroke-width="0.0762" stroke-miterlimit="22.9256"/>
<path d="M118.476 61.0459C118.049 61.6364 117.299 62.1258 116.228 62.5148C115.156 62.9032 113.975 63.0973 112.685 63.0973C111.427 63.0973 110.304 62.7906 109.318 62.1764C108.331 61.5628 107.56 60.6965 107.005 59.5772C106.449 58.4583 106.164 57.192 106.148 55.7775V52.8636C106.148 51.4726 106.416 50.2253 106.952 49.1223C107.489 48.0187 108.242 47.1659 109.213 46.5638C110.184 45.9618 111.275 45.6604 112.487 45.6604C114.173 45.6604 115.546 46.0915 116.606 46.9541C117.667 47.8166 118.282 48.9939 118.453 50.4858H117.824C117.614 49.1338 117.051 48.0966 116.135 47.374C115.218 46.651 114.002 46.2899 112.487 46.2899C110.778 46.2899 109.399 46.8999 108.351 48.1197C107.302 49.3397 106.778 50.9442 106.778 52.9335V55.6376C106.778 56.9664 107.024 58.1515 107.517 59.1924C108.011 60.234 108.706 61.04 109.603 61.6114C110.5 62.1825 111.528 62.468 112.685 62.468C113.819 62.468 114.872 62.3006 115.843 61.966C116.814 61.6309 117.482 61.2262 117.847 60.7517V55.8006H112.662V55.1713H118.476V61.0459Z" fill="#1C1C1B"/>
<path d="M132.037 54.4487H123.532V62.2348H133.226V62.8642H122.902V45.8936H133.226V46.523H123.532V53.8192H132.037V54.4487Z" fill="#1C1C1B"/>
<path d="M148.712 62.8642H148.082L137.129 46.9657V62.8642H136.488V45.8936H137.129L148.082 61.757V45.8936H148.712V62.8642Z" fill="#1C1C1B"/>
<path d="M164.907 57.6657C164.744 59.414 164.142 60.7568 163.101 61.693C162.06 62.6293 160.646 63.0973 158.859 63.0973C157.655 63.0973 156.589 62.7923 155.661 62.1825C154.733 61.5725 154.012 60.7062 153.499 59.5832C152.987 58.4601 152.727 57.1763 152.719 55.7311V53.1083C152.719 51.6631 152.971 50.3713 153.476 49.233C153.981 48.0947 154.701 47.2146 155.638 46.593C156.574 45.9715 157.648 45.6604 158.859 45.6604C160.631 45.6604 162.041 46.1267 163.089 47.0593C164.138 47.9914 164.744 49.328 164.907 51.0685H164.278C164.099 49.5069 163.555 48.3199 162.646 47.508C161.738 46.6959 160.475 46.2899 158.859 46.2899C157.213 46.2899 155.882 46.9114 154.869 48.1544C153.855 49.3981 153.348 51.0647 153.348 53.1551V55.6491C153.348 56.9858 153.573 58.1691 154.024 59.1985C154.474 60.2284 155.121 61.0307 155.964 61.6055C156.807 62.1806 157.772 62.468 158.859 62.468C160.483 62.468 161.751 62.068 162.664 61.2675C163.577 60.467 164.115 59.2667 164.278 57.6657H164.907Z" fill="#1C1C1B"/>
<path d="M173.598 55.8475L179.541 45.8936H180.31L173.913 56.4184V62.8642H173.284V56.4184L166.887 45.8936H167.726L173.598 55.8475Z" fill="#1C1C1B" stroke="#1C1C1B" stroke-width="0.0762" stroke-miterlimit="22.9256"/>
<path d="M81.9757 82H0V0H81.9757V82ZM4.74462 77.2538H77.231V4.74615H4.74462V77.2538Z" fill="#1C1C1B"/>
<path d="M21.5873 45.7791H16.7835V56.495H10.7539V27.2224H21.6274C25.0844 27.2224 27.7506 27.9932 29.6266 29.5343C31.5026 31.0759 32.4406 33.2538 32.4406 36.0686C32.4406 38.0657 32.0086 39.731 31.1442 41.0645C30.28 42.3985 28.9702 43.4604 27.215 44.251L33.5461 56.2137V56.495H27.0743L21.5873 45.7791ZM16.7835 40.8937H21.6475C23.1616 40.8937 24.3338 40.5085 25.1649 39.7376C25.9954 38.967 26.411 37.905 26.411 36.551C26.411 35.1705 26.0191 34.0851 25.2353 33.2939C24.4512 32.5033 23.2484 32.1078 21.6274 32.1078H16.7835V40.8937Z" fill="#1C1C1B"/>
<path d="M54.6302 43.8088H43.053V51.6497H56.64V56.495H37.0234V27.2224H56.5999V32.1078H43.053V39.0843H54.6302V43.8088Z" fill="#1C1C1B"/>
<path d="M71.2213 43.7553H59.6094V39.0413H71.2213V43.7553Z" fill="#1C1C1B"/>
</svg>
